<svg width="64" height="64" viewBox="0 0 64 64" fill="none" xmlns="http://www.w3.org/2000/svg">
<circle cx="32" cy="32" r="32" fill="#001861"/>
<path d="M18.2539 35.7969L9.16016 44.9375C8.73828 45.3594 8.03516 45.3594 7.56641 44.9375L6.53516 43.8594C6.06641 43.4375 6.06641 42.7344 6.48828 42.2656L13.7539 35L6.48828 27.7812C6.06641 27.3125 6.06641 26.6094 6.53516 26.1875L7.56641 25.1094C8.03516 24.6875 8.73828 24.6875 9.16016 25.1094L18.2539 34.25C18.7227 34.6719 18.7227 35.375 18.2539 35.7969ZM36.207 44.375C36.207 45.0312 35.6914 45.5 35.082 45.5H20.832C20.1758 45.5 19.707 45.0312 19.707 44.375V42.875C19.707 42.2656 20.1758 41.75 20.832 41.75H35.082C35.6914 41.75 36.207 42.2656 36.207 42.875V44.375ZM51.867 44L50.283 37.952H43.407L41.859 44H36.387L43.191 18.872H50.823L57.627 44H51.867ZM47.007 24.092H46.719L44.271 33.596H49.455L47.007 24.092Z" fill="white"/>
</svg>
